<?xml version="1.0" encoding="UTF-8"?>
<svg xmlns="http://www.w3.org/2000/svg" version="1.1" width="300" height="300" viewBox="0 0 300 300"><rect x="0" y="0" width="300" height="300" fill="#ffffff"/><g transform="scale(9.091)"><g transform="translate(0,0)"><path fill-rule="evenodd" d="M8 0L8 1L11 1L11 3L10 3L10 2L9 2L9 3L10 3L10 5L9 5L9 6L8 6L8 8L9 8L9 9L7 9L7 8L6 8L6 9L7 9L7 10L6 10L6 11L5 11L5 10L4 10L4 9L5 9L5 8L3 8L3 11L2 11L2 12L3 12L3 11L4 11L4 12L6 12L6 13L5 13L5 14L6 14L6 15L7 15L7 14L8 14L8 13L9 13L9 14L11 14L11 12L9 12L9 11L10 11L10 10L11 10L11 9L10 9L10 7L11 7L11 6L12 6L12 9L13 9L13 8L15 8L15 11L14 11L14 10L12 10L12 11L14 11L14 12L15 12L15 13L12 13L12 14L14 14L14 16L13 16L13 15L12 15L12 16L11 16L11 17L10 17L10 15L9 15L9 17L10 17L10 18L8 18L8 17L7 17L7 16L6 16L6 17L7 17L7 18L5 18L5 22L4 22L4 21L2 21L2 20L1 20L1 19L0 19L0 20L1 20L1 21L0 21L0 25L2 25L2 24L3 24L3 25L4 25L4 24L3 24L3 22L4 22L4 23L5 23L5 22L6 22L6 23L7 23L7 24L6 24L6 25L8 25L8 26L9 26L9 27L11 27L11 28L12 28L12 27L14 27L14 26L15 26L15 28L14 28L14 29L11 29L11 30L9 30L9 29L10 29L10 28L8 28L8 30L9 30L9 31L8 31L8 33L10 33L10 31L12 31L12 33L16 33L16 32L17 32L17 33L20 33L20 32L21 32L21 31L23 31L23 30L22 30L22 29L21 29L21 30L20 30L20 29L19 29L19 28L21 28L21 27L22 27L22 28L23 28L23 29L24 29L24 31L25 31L25 29L27 29L27 31L26 31L26 32L23 32L23 33L30 33L30 32L33 32L33 30L32 30L32 31L30 31L30 32L27 32L27 31L29 31L29 30L31 30L31 29L29 29L29 27L30 27L30 28L31 28L31 27L32 27L32 29L33 29L33 27L32 27L32 26L31 26L31 25L33 25L33 22L32 22L32 21L33 21L33 17L30 17L30 20L29 20L29 21L28 21L28 24L25 24L25 23L24 23L24 22L26 22L26 20L25 20L25 21L23 21L23 19L24 19L24 18L25 18L25 19L27 19L27 16L28 16L28 19L29 19L29 14L30 14L30 16L33 16L33 15L31 15L31 14L32 14L32 13L33 13L33 10L32 10L32 9L33 9L33 8L32 8L32 9L28 9L28 10L26 10L26 9L27 9L27 8L26 8L26 9L25 9L25 6L24 6L24 5L25 5L25 4L24 4L24 5L23 5L23 3L22 3L22 2L23 2L23 1L22 1L22 0L20 0L20 1L18 1L18 0L16 0L16 1L17 1L17 2L15 2L15 4L14 4L14 2L13 2L13 1L14 1L14 0L13 0L13 1L12 1L12 0ZM24 0L24 1L25 1L25 0ZM20 1L20 3L19 3L19 2L17 2L17 3L16 3L16 4L15 4L15 7L16 7L16 9L17 9L17 10L18 10L18 11L21 11L21 12L20 12L20 13L18 13L18 12L16 12L16 14L20 14L20 13L21 13L21 16L18 16L18 15L17 15L17 17L20 17L20 19L19 19L19 18L18 18L18 19L17 19L17 20L18 20L18 19L19 19L19 20L20 20L20 22L19 22L19 21L16 21L16 24L17 24L17 26L16 26L16 27L17 27L17 29L18 29L18 30L16 30L16 31L17 31L17 32L20 32L20 31L18 31L18 30L19 30L19 29L18 29L18 27L19 27L19 26L20 26L20 27L21 27L21 26L22 26L22 27L23 27L23 28L24 28L24 27L23 27L23 25L24 25L24 24L23 24L23 21L22 21L22 19L23 19L23 18L24 18L24 17L25 17L25 18L26 18L26 17L25 17L25 16L26 16L26 15L28 15L28 14L29 14L29 12L30 12L30 13L32 13L32 10L28 10L28 11L29 11L29 12L27 12L27 13L25 13L25 12L26 12L26 11L25 11L25 9L24 9L24 8L23 8L23 7L24 7L24 6L23 6L23 5L21 5L21 4L20 4L20 3L21 3L21 2L22 2L22 1ZM12 2L12 4L13 4L13 5L12 5L12 6L13 6L13 7L14 7L14 6L13 6L13 5L14 5L14 4L13 4L13 2ZM24 2L24 3L25 3L25 2ZM17 3L17 5L16 5L16 7L17 7L17 5L20 5L20 7L19 7L19 6L18 6L18 8L17 8L17 9L19 9L19 10L21 10L21 8L20 8L20 7L21 7L21 5L20 5L20 4L18 4L18 3ZM10 5L10 6L9 6L9 7L10 7L10 6L11 6L11 5ZM22 6L22 7L23 7L23 6ZM0 8L0 9L1 9L1 10L0 10L0 11L1 11L1 10L2 10L2 8ZM9 9L9 10L10 10L10 9ZM22 9L22 10L23 10L23 11L22 11L22 18L21 18L21 19L20 19L20 20L21 20L21 19L22 19L22 18L23 18L23 17L24 17L24 16L23 16L23 14L25 14L25 15L26 15L26 14L25 14L25 13L23 13L23 12L25 12L25 11L24 11L24 9ZM7 10L7 11L6 11L6 12L7 12L7 13L6 13L6 14L7 14L7 13L8 13L8 12L7 12L7 11L8 11L8 10ZM30 11L30 12L31 12L31 11ZM1 13L1 14L0 14L0 15L1 15L1 17L0 17L0 18L4 18L4 17L5 17L5 15L4 15L4 13L3 13L3 14L2 14L2 13ZM3 15L3 16L2 16L2 17L3 17L3 16L4 16L4 15ZM15 15L15 16L14 16L14 17L12 17L12 18L10 18L10 19L12 19L12 21L11 21L11 22L10 22L10 23L9 23L9 24L11 24L11 22L12 22L12 23L13 23L13 22L12 22L12 21L13 21L13 19L12 19L12 18L15 18L15 17L16 17L16 15ZM7 18L7 19L6 19L6 20L7 20L7 21L6 21L6 22L7 22L7 23L8 23L8 22L9 22L9 21L10 21L10 20L7 20L7 19L8 19L8 18ZM14 19L14 21L15 21L15 20L16 20L16 19ZM30 20L30 21L29 21L29 23L32 23L32 22L30 22L30 21L31 21L31 20ZM1 21L1 24L2 24L2 21ZM7 21L7 22L8 22L8 21ZM14 22L14 25L15 25L15 22ZM17 22L17 24L18 24L18 22ZM21 22L21 23L22 23L22 22ZM19 24L19 25L18 25L18 26L19 26L19 25L20 25L20 26L21 26L21 25L20 25L20 24ZM29 24L29 25L31 25L31 24ZM11 25L11 26L13 26L13 25ZM25 25L25 28L28 28L28 25ZM26 26L26 27L27 27L27 26ZM28 29L28 30L29 30L29 29ZM12 30L12 31L13 31L13 32L14 32L14 31L15 31L15 30ZM0 0L0 7L7 7L7 0ZM1 1L1 6L6 6L6 1ZM2 2L2 5L5 5L5 2ZM26 0L26 7L33 7L33 0ZM27 1L27 6L32 6L32 1ZM28 2L28 5L31 5L31 2ZM0 26L0 33L7 33L7 26ZM1 27L1 32L6 32L6 27ZM2 28L2 31L5 31L5 28Z" fill="#000000"/></g></g></svg>
